<svg width="148" height="148" viewBox="0 0 148 148" fill="none" xmlns="http://www.w3.org/2000/svg">
<rect width="148" height="148" rx="4" fill="#EFBBAF"/>
<path d="M87.5005 91.0815C87.1452 92.716 85.6987 93.8818 84.0261 93.8818H49.0725C46.8064 93.8818 45.1185 91.7903 45.5971 89.5753L51.7762 60.977C52.1298 59.3405 53.5772 58.1724 55.2516 58.1724H90.2426C92.5106 58.1724 94.1988 60.267 93.717 62.4832L87.5005 91.0815Z" fill="#E25F3C" stroke="#E25F3C" stroke-width="1.77778" stroke-miterlimit="10" stroke-linecap="round" stroke-linejoin="round"/>
<path d="M63.86 93.8818C62.2397 93.8818 60.8244 92.7864 60.4181 91.2179L53.9537 66.2646L52.9906 62.6413C52.3908 60.3847 54.0919 58.1724 56.4269 58.1724H91.3257C92.9446 58.1724 94.3592 59.266 94.7668 60.8327L95.8983 65.1825L96.1789 66.2646L96.2257 66.4528L102.181 89.4343C102.764 91.6857 101.065 93.8818 98.739 93.8818H63.86Z" fill="white" stroke="#E25F3C" stroke-width="1.77778" stroke-miterlimit="10" stroke-linecap="round" stroke-linejoin="round"/>
<path d="M54.3131 66.4467L96.0954 66.4467" stroke="#E25F3C" stroke-width="1.77778" stroke-linecap="round"/>
<path d="M87.146 62.1674C88.5611 62.1674 89.7083 60.7121 89.7083 58.917C89.7083 57.1219 88.5611 55.6666 87.146 55.6666C86.0427 55.6666 85.1024 56.5511 84.7415 57.7916" stroke="#E25F3C" stroke-width="1.77778" stroke-linecap="round"/>
<ellipse cx="86.7823" cy="62.2028" rx="1.51269" ry="1.51269" fill="#E25F3C"/>
<path d="M63.3396 62.1674C64.7547 62.1674 65.9019 60.7121 65.9019 58.917C65.9019 57.1219 64.7547 55.6666 63.3396 55.6666C62.2364 55.6666 61.296 56.5511 60.9351 57.7916" stroke="#E25F3C" stroke-width="1.77778" stroke-linecap="round"/>
<ellipse cx="62.9759" cy="62.2028" rx="1.51269" ry="1.51269" fill="#E25F3C"/>
</svg>
