<svg width="148" height="148" viewBox="0 0 148 148" fill="none" xmlns="http://www.w3.org/2000/svg">
<rect width="148" height="148" rx="4" fill="#EFBBAF"/>
<path d="M48.9928 100.341C46.8967 101.19 44.8097 99.1031 45.6589 97.007L63.2745 53.5247C63.9627 51.8258 66.1612 51.3796 67.4573 52.6757L93.3241 78.5425C94.6203 79.8386 94.1741 82.0371 92.4752 82.7254L48.9928 100.341Z" fill="white" stroke="#E25F3C" stroke-width="0.853333"/>
<path d="M64.2064 52.324C64.6788 51.8517 65.5126 51.6628 66.7608 51.8787C67.9951 52.0923 69.5342 52.6875 71.2814 53.6321C74.7707 55.5184 79.0019 58.7496 83.1361 62.8838C87.2703 67.0179 90.5015 71.2492 92.3878 74.7385C93.3324 76.4857 93.9276 78.0248 94.1412 79.2591C94.3571 80.5073 94.1683 81.3411 93.6959 81.8135C93.2235 82.2859 92.3897 82.4748 91.1415 82.2588C89.9071 82.0452 88.3681 81.45 86.6209 80.5055C83.1316 78.6191 78.9003 75.388 74.7661 71.2538C70.6319 67.1196 67.4008 62.8883 65.5144 59.399C64.5699 57.6518 63.9747 56.1128 63.7611 54.8784C63.5451 53.6302 63.734 52.7964 64.2064 52.324Z" fill="#E25F3C" stroke="#E25F3C" stroke-width="0.853333"/>
<mask id="mask0_1_1862" style="mask-type:alpha" maskUnits="userSpaceOnUse" x="45" y="51" width="50" height="50">
<path d="M48.9928 100.341C46.8967 101.19 44.8097 99.1031 45.6589 97.007L63.2745 53.5247C63.9627 51.8258 66.1612 51.3796 67.4573 52.6757L93.3241 78.5425C94.6203 79.8386 94.1741 82.0371 92.4752 82.7254L48.9928 100.341Z" fill="white" stroke="#5870FF" stroke-width="0.853333"/>
</mask>
<g mask="url(#mask0_1_1862)">
<path d="M57.1842 57.1464C55.8695 58.4611 56.5832 61.5401 58.7842 65.3823C60.7315 68.7818 63.8431 72.7786 67.744 76.6795C71.6449 80.5804 75.6417 83.6919 79.0411 85.6393C82.8834 87.8402 85.9624 88.554 87.2771 87.2392" stroke="#E25F3C" stroke-width="0.853333"/>
<path d="M49.5419 64.5958C48.2272 65.9105 48.9409 68.9896 51.1419 72.8318C53.0892 76.2312 56.2007 80.2281 60.1016 84.129C64.0025 88.0299 67.9994 91.1414 71.3988 93.0887C75.241 95.2897 78.3201 96.0034 79.6348 94.6887" stroke="#E25F3C" stroke-width="0.853333"/>
<path d="M42.4878 71.8458C41.1731 73.1605 41.8868 76.2395 44.0878 80.0817C46.0351 83.4812 49.1466 87.478 53.0475 91.3789C56.9485 95.2798 60.9453 98.3913 64.3447 100.339C68.1869 102.54 71.266 103.253 72.5807 101.939" stroke="#E25F3C" stroke-width="0.853333"/>
</g>
<path d="M81.2008 41.3975C81.3654 41.115 81.7736 41.115 81.9382 41.3975L83.2601 43.6671C83.3204 43.7706 83.4214 43.844 83.5385 43.8693L86.1055 44.4252C86.4251 44.4944 86.5512 44.8826 86.3333 45.1265L84.5833 47.085C84.5035 47.1743 84.4649 47.2931 84.477 47.4123L84.7416 50.0254C84.7745 50.3507 84.4443 50.5907 84.145 50.4588L81.7416 49.3997C81.632 49.3514 81.5071 49.3514 81.3975 49.3997L78.994 50.4588C78.6948 50.5907 78.3645 50.3507 78.3975 50.0254L78.662 47.4123C78.6741 47.2931 78.6355 47.1743 78.5557 47.085L76.8057 45.1265C76.5878 44.8826 76.714 44.4944 77.0336 44.4252L79.6005 43.8693C79.7176 43.844 79.8186 43.7706 79.8789 43.6671L81.2008 41.3975Z" fill="#E25F3C"/>
<path d="M101.23 51.5397C101.395 51.2571 101.803 51.2571 101.968 51.5397L103.29 53.8092C103.35 53.9127 103.451 53.9861 103.568 54.0115L106.135 54.5674C106.455 54.6366 106.581 55.0248 106.363 55.2686L104.613 57.2272C104.533 57.3165 104.495 57.4353 104.507 57.5544L104.771 60.1675C104.804 60.4929 104.474 60.7328 104.175 60.601L101.771 59.5418C101.662 59.4935 101.537 59.4935 101.427 59.5418L99.0237 60.601C98.7244 60.7328 98.3942 60.4929 98.4271 60.1675L98.6917 57.5544C98.7038 57.4353 98.6652 57.3165 98.5854 57.2272L96.8354 55.2686C96.6175 55.0248 96.7437 54.6366 97.0632 54.5674L99.6302 54.0115C99.7473 53.9861 99.8483 53.9127 99.9086 53.8092L101.23 51.5397Z" fill="#E25F3C"/>
<path d="M90.0354 59.1545C90.203 58.891 90.5876 58.891 90.7553 59.1545L91.4948 60.3165C91.5284 60.3692 91.573 60.4139 91.6257 60.4474L92.7878 61.187C93.0512 61.3546 93.0512 61.7392 92.7878 61.9069L91.6257 62.6465C91.573 62.68 91.5284 62.7247 91.4948 62.7773L90.7553 63.9394C90.5876 64.2029 90.203 64.2029 90.0354 63.9394L89.2958 62.7773C89.2623 62.7247 89.2176 62.68 89.1649 62.6465L88.0028 61.9069C87.7394 61.7392 87.7394 61.3546 88.0028 61.187L89.1649 60.4474C89.2176 60.4139 89.2623 60.3692 89.2958 60.3165L90.0354 59.1545Z" fill="#E25F3C"/>
<circle cx="91.2485" cy="50.907" r="1.43364" fill="#E25F3C"/>
<ellipse cx="96.2415" cy="70.3001" rx="2.24125" ry="2.24125" fill="#E25F3C"/>
</svg>
