<svg width="52" height="58" viewBox="0 0 52 58" fill="none" xmlns="http://www.w3.org/2000/svg">
<rect x="0.953125" y="9.91699" width="50.5686" height="48" rx="4" fill="#B8A6FF"/>
<path d="M39.1758 25.5879H13.3" stroke="#7848FF" stroke-width="2" stroke-linecap="round" stroke-linejoin="round"/>
<path d="M37.1056 21.9649V8.92069C37.1056 6.91999 35.4837 5.2981 33.483 5.2981C31.4822 5.2981 29.8604 6.91999 29.8604 8.9207V21.9649C29.8604 23.9656 31.4822 25.5875 33.483 25.5875C35.4837 25.5875 37.1056 23.9656 37.1056 21.9649Z" fill="white" stroke="#7848FF" stroke-width="2" stroke-linecap="round" stroke-linejoin="round"/>
<path d="M29.8607 21.9668V14.7195C29.8607 12.7188 28.2388 11.0969 26.2381 11.0969C24.2374 11.0969 22.6155 12.7188 22.6155 14.7195V21.9668C22.6155 23.9675 24.2374 25.5894 26.2381 25.5894C28.2388 25.5894 29.8607 23.9675 29.8607 21.9668Z" fill="white" stroke="#7848FF" stroke-width="2" stroke-linecap="round" stroke-linejoin="round"/>
<path d="M22.6158 21.9645V20.5142C22.6158 18.5135 20.9939 16.8916 18.9932 16.8916C16.9925 16.8916 15.3706 18.5135 15.3706 20.5142V21.9645C15.3706 23.9652 16.9925 25.5871 18.9932 25.5871C20.9939 25.5871 22.6158 23.9652 22.6158 21.9645Z" fill="white" stroke="#7848FF" stroke-width="2" stroke-linecap="round" stroke-linejoin="round"/>
</svg>
