<svg width="51" height="58" viewBox="0 0 51 58" fill="none" xmlns="http://www.w3.org/2000/svg">
<rect x="0.12207" y="9.91699" width="50.5686" height="48" rx="4" fill="#C4EAFF"/>
<path d="M25.4061 27.7265C32.3881 27.7265 38.0482 22.443 38.0482 15.9255C38.0482 9.408 32.3881 4.12451 25.4061 4.12451C18.424 4.12451 12.7639 9.408 12.7639 15.9255C12.7639 22.443 18.424 27.7265 25.4061 27.7265Z" fill="white" stroke="#58C3FF" stroke-width="2" stroke-miterlimit="10"/>
<path d="M12.7639 15.9255H38.0482" stroke="#58C3FF" stroke-width="2" stroke-linecap="round" stroke-linejoin="round"/>
<path d="M25.406 27.4071C28.3152 27.4071 30.6735 22.2667 30.6735 15.9257C30.6735 9.58473 28.3152 4.44434 25.406 4.44434C22.4968 4.44434 20.1384 9.58473 20.1384 15.9257C20.1384 22.2667 22.4968 27.4071 25.406 27.4071Z" stroke="#58C3FF" stroke-width="2" stroke-miterlimit="10"/>
</svg>
