<svg width="52" height="63" viewBox="0 0 52 63" fill="none" xmlns="http://www.w3.org/2000/svg">
<rect x="0.786133" y="14.917" width="50.5686" height="48" rx="4" fill="#C4EAFF"/>
<path d="M14.4824 26.7016V6.0498" stroke="#58C3FF" stroke-width="2" stroke-linecap="round" stroke-linejoin="round"/>
<path d="M14.4824 13.1185C14.4824 16.3547 18.6211 18.6625 21.7833 19.3508C26.4476 20.3659 30.8008 23.9948 35.8441 21.8255C37.043 21.3098 37.6597 20.0245 37.6597 18.7193V13.7337C37.6597 10.4975 33.521 8.18972 30.3588 7.50147C25.6945 6.48629 21.3413 2.8574 16.298 5.0267" fill="white"/>
<path d="M16.298 5.0267C21.3413 2.8574 25.6945 6.48629 30.3588 7.50147C33.521 8.18972 37.6597 10.4975 37.6597 13.7337V18.7193C37.6597 20.0245 37.043 21.3098 35.8441 21.8255C30.8008 23.9948 26.4476 20.3659 21.7833 19.3508C18.6211 18.6625 14.4824 16.3547 14.4824 13.1185V8.13295C14.4824 6.82779 15.0991 5.54241 16.298 5.0267Z" stroke="#58C3FF" stroke-width="2" stroke-linecap="round" stroke-linejoin="round"/>
</svg>
