<svg width="51" height="63" viewBox="0 0 51 63" fill="none" xmlns="http://www.w3.org/2000/svg">
<rect x="0.12207" y="14.917" width="50.5686" height="48" rx="4" fill="#B8A6FF"/>
<path d="M25.4061 27.685C32.3881 27.685 38.0482 22.4015 38.0482 15.884C38.0482 9.3665 32.3881 4.08301 25.4061 4.08301C18.424 4.08301 12.7639 9.3665 12.7639 15.884C12.7639 22.4015 18.424 27.685 25.4061 27.685Z" fill="white" stroke="#7848FF" stroke-width="2" stroke-linecap="round" stroke-linejoin="round"/>
<path d="M25.406 19.8178C28.3152 19.8178 30.6735 17.6164 30.6735 14.9007C30.6735 12.1851 28.3152 9.98364 25.406 9.98364C22.4968 9.98364 20.1384 12.1851 20.1384 14.9007C20.1384 17.6164 22.4968 19.8178 25.406 19.8178Z" stroke="#7848FF" stroke-width="2" stroke-linecap="round" stroke-linejoin="round"/>
<path d="M16.9512 24.661C17.7438 23.2036 18.9533 21.9795 20.4456 21.1245C21.9379 20.2695 23.6546 19.8169 25.4056 19.8169C27.1566 19.8169 28.8733 20.2695 30.3656 21.1245C31.8579 21.9795 33.0674 23.2036 33.86 24.661" stroke="#7848FF" stroke-width="2" stroke-linecap="round" stroke-linejoin="round"/>
</svg>
