<svg width="52" height="64" viewBox="0 0 52 64" fill="none" xmlns="http://www.w3.org/2000/svg">
<rect x="0.953125" y="15.917" width="50.5686" height="48" rx="4" fill="#FFEFF0"/>
<path d="M14.6484 14.6873V7.47145C14.6484 7.21064 14.7594 6.9605 14.957 6.77607C15.1546 6.59165 15.4225 6.48804 15.7019 6.48804H36.7722C37.0516 6.48804 37.3196 6.59165 37.5171 6.77607C37.7147 6.9605 37.8257 7.21064 37.8257 7.47145V14.6873C37.8257 25.0131 28.4363 28.4305 26.5663 29.0083C26.3539 29.0817 26.1203 29.0817 25.9078 29.0083C24.0379 28.4305 14.6484 25.0131 14.6484 14.6873Z" fill="white" stroke="#5870FF" stroke-width="2" stroke-linecap="round" stroke-linejoin="round"/>
<path d="M32.031 13.3721L26.9633 17.885C25.446 19.2362 23.1566 19.2353 21.6404 17.8827L20.4424 16.814" stroke="#5870FF" stroke-width="2" stroke-linecap="round" stroke-linejoin="round"/>
</svg>
