<svg width="1260" height="400" viewBox="0 0 1260 400" fill="none" xmlns="http://www.w3.org/2000/svg">
<mask id="mask0_3_5027" style="mask-type:alpha" maskUnits="userSpaceOnUse" x="0" y="0" width="1260" height="400">
<rect width="1260" height="400" rx="4" fill="#E25F3C"/>
</mask>
<g mask="url(#mask0_3_5027)">
<path d="M-130.634 518C-130.635 520.209 -128.844 522 -126.634 522H1386.64C1388.85 522 1390.64 520.209 1390.64 518V225.927C1390.64 223.718 1388.85 221.927 1386.64 221.927H1377.03C1374.82 221.927 1373.03 223.718 1373.03 225.927V252.806C1373.03 255.015 1371.24 256.806 1369.03 256.806H1358.41C1356.2 256.806 1354.41 255.015 1354.41 252.806V169.744C1354.41 167.535 1352.62 165.744 1350.41 165.744H1334.88C1332.68 165.744 1330.88 167.535 1330.88 169.744V185.964C1330.88 188.173 1329.09 189.964 1326.88 189.964H1326.06C1323.85 189.964 1322.06 188.173 1322.06 185.964V167.415C1322.06 166.346 1321.63 165.321 1320.87 164.57L1317.35 161.088C1316.6 160.348 1315.59 159.934 1314.54 159.934H1300.58C1298.37 159.934 1296.58 158.143 1296.58 155.934V151.342C1296.58 149.133 1294.79 147.342 1292.58 147.342H1287.84C1285.63 147.342 1283.84 145.551 1283.84 143.342V55.4393C1283.84 53.2302 1282.05 51.4393 1279.84 51.4393H1277.02C1274.81 51.4393 1273.02 49.6485 1273.02 47.4393V38C1273.02 35.7909 1271.23 34 1269.02 34H1228.99C1226.78 34 1224.99 35.7909 1224.99 38V52.2806C1224.99 54.4897 1223.2 56.2806 1220.99 56.2806H1212.29C1210.09 56.2806 1208.29 58.0715 1208.29 60.2806V66.2382C1208.29 67.3074 1207.87 68.332 1207.11 69.0835L1185.47 90.4663C1184.71 91.2178 1184.28 92.2424 1184.28 93.3115V227.617C1184.28 229.826 1182.49 231.617 1180.28 231.617H1170.14C1167.93 231.617 1166.14 229.826 1166.14 227.617V153.275C1166.14 151.066 1164.35 149.275 1162.14 149.275H1156.42C1154.21 149.275 1152.42 151.066 1152.42 153.275V229.529C1152.42 231.738 1150.63 233.529 1148.42 233.529H1130.94C1128.73 233.529 1126.94 231.738 1126.94 229.529V145.518C1126.94 143.309 1125.15 141.518 1122.94 141.518H1115.26C1113.05 141.518 1111.26 143.309 1111.26 145.518V151.092C1111.26 153.301 1109.47 155.092 1107.26 155.092H1067.23C1065.02 155.092 1063.23 153.301 1063.23 151.092V94.1896C1063.23 91.9805 1061.44 90.1896 1059.23 90.1896H995.676C993.467 90.1896 991.676 91.9805 991.676 94.1896V110.403C991.676 112.612 989.885 114.403 987.676 114.403H983.914C981.705 114.403 979.914 112.612 979.914 110.403V107.751C979.914 105.541 978.123 103.751 975.914 103.751H968.237C966.027 103.751 964.237 105.541 964.237 107.751V108.444C964.237 110.653 962.446 112.444 960.237 112.444H955.489C953.28 112.444 951.489 114.234 951.489 116.444V128.825C951.489 131.034 949.698 132.825 947.489 132.825H940.79C938.581 132.825 936.79 134.616 936.79 136.825V137.518C936.79 139.727 935 141.518 932.79 141.518H927.071C924.862 141.518 923.071 143.309 923.071 145.518V183.055C923.071 185.265 921.28 187.055 919.071 187.055H915.302C913.093 187.055 911.302 185.265 911.302 183.055V161.025C911.302 158.816 909.511 157.025 907.302 157.025H840.816C838.607 157.025 836.816 158.816 836.816 161.025V246.988C836.816 249.198 835.025 250.988 832.816 250.988H821.209C819 250.988 817.209 249.198 817.209 246.988V149.985C817.209 148.915 816.779 147.889 816.017 147.137L809.583 140.794C808.82 140.042 808.391 139.016 808.391 137.945V126.126C808.391 123.917 806.6 122.126 804.391 122.126H790.826C788.616 122.126 786.826 123.917 786.826 126.126V183.055C786.826 185.265 785.035 187.055 782.826 187.055H760.442C758.233 187.055 756.442 185.265 756.442 183.055V166.842C756.442 164.633 754.651 162.842 752.442 162.842H751.618C749.408 162.842 747.618 164.633 747.618 166.842V183.055C747.618 185.265 745.827 187.055 743.618 187.055H742.8C740.591 187.055 738.8 185.265 738.8 183.055V165.48C738.8 164.408 738.37 163.382 737.607 162.63L728.231 153.392C727.468 152.64 727.038 151.614 727.038 150.543V117.356C727.038 115.189 725.282 113.433 723.115 113.433C720.949 113.433 719.192 115.189 719.192 117.356V149.544C719.192 150.612 718.765 151.637 718.004 152.388L705.682 164.57C704.922 165.322 704.494 166.346 704.494 167.415V183.055C704.494 185.265 702.703 187.055 700.494 187.055H679.005C676.55 187.055 678.2 146.443 678.807 133.115C678.911 130.829 677.087 128.933 674.798 128.933H620.281C618.072 128.933 616.281 127.142 616.281 124.933V120.082C616.281 117.264 612.879 115.848 610.879 117.833C610.28 118.428 609.943 119.238 609.943 120.082V211.147C609.943 213.356 608.152 215.147 605.943 215.147H600.674C598.464 215.147 596.674 213.356 596.674 211.147V195.903C596.674 193.694 594.883 191.903 592.674 191.903H565.389C563.18 191.903 561.389 190.113 561.389 187.903V173.226C561.389 172.157 560.961 171.132 560.2 170.381L548.365 158.687C547.604 157.936 547.176 156.911 547.176 155.842V91.3009C547.176 89.0918 545.385 87.3009 543.176 87.3009H542.844C540.635 87.3009 538.844 85.5101 538.844 83.3009V69.9565C538.844 67.7474 537.053 65.9565 534.844 65.9565H520.307C518.098 65.9565 516.307 67.7473 516.307 69.9565V223.778C516.307 225.988 514.516 227.778 512.307 227.778H505.601C503.392 227.778 501.601 225.988 501.601 223.778V178.464C501.601 176.255 499.81 174.464 497.601 174.464H496.776C494.567 174.464 492.776 172.673 492.776 170.464V149.403C492.776 147.194 490.986 145.403 488.776 145.403H451.702C449.493 145.403 447.702 147.194 447.702 149.403V151.092C447.702 153.301 445.911 155.092 443.702 155.092H428.164C425.955 155.092 424.164 156.883 424.164 159.092V166.592C424.164 168.802 422.373 170.592 420.164 170.592H408.564C406.355 170.592 404.564 172.383 404.564 174.592V190.233C404.564 191.302 404.136 192.326 403.376 193.078L370.21 225.854C367.683 228.351 363.398 226.562 363.398 223.009V155.214C363.398 153.005 361.607 151.214 359.398 151.214H325.632C324.295 151.214 323.211 150.13 323.211 148.793C323.211 147.456 322.127 146.373 320.79 146.373H318.763C316.89 146.373 315.372 147.89 315.372 149.763C315.372 151.635 313.854 153.153 311.982 153.153H310.548C308.338 153.153 306.548 154.944 306.548 157.153V213.079C306.548 215.289 304.757 217.079 302.548 217.079H296.828C294.619 217.079 292.828 215.289 292.828 213.079V112.201C292.828 111.132 292.4 110.108 291.64 109.357L282.235 100.058C281.486 99.3178 280.476 98.9026 279.423 98.9026H261.144C260.091 98.9026 259.081 99.3178 258.332 100.058L248.927 109.357C248.167 110.108 247.739 111.132 247.739 112.201V170.464C247.739 172.673 245.948 174.464 243.739 174.464H242.921C240.712 174.464 238.921 176.255 238.921 178.464V192.01C238.921 195.562 234.636 197.352 232.11 194.855L227.855 190.65C227.095 189.899 226.667 188.874 226.667 187.805V162.964C226.667 160.755 224.876 158.964 222.667 158.964H200.378C199.325 158.964 198.315 159.379 197.566 160.119L184.219 173.309C183.47 174.049 182.46 174.464 181.407 174.464H156.246C155.194 174.464 154.184 174.879 153.435 175.619L140.581 188.321C139.832 189.061 138.822 189.476 137.769 189.476H136.066C133.857 189.476 132.066 187.685 132.066 185.476V177.494C132.066 175.285 130.275 173.494 128.066 173.494H123.34C121.13 173.494 119.34 171.704 119.34 169.494V161.994C119.34 159.785 117.549 157.994 115.34 157.994H111.578C109.369 157.994 107.578 159.785 107.578 161.994V170.464C107.578 172.673 105.787 174.464 103.578 174.464H60.6083C58.3992 174.464 56.6083 176.255 56.6083 178.464V212.117C56.6083 214.326 54.8175 216.117 52.6083 216.117H45.9168C43.7077 216.117 41.9168 214.326 41.9168 212.117V83.5308C41.9168 81.3216 40.1259 79.5308 37.9168 79.5308H25.9103C24.8576 79.5308 23.8473 79.1158 23.0986 78.3758L2.16074 57.6831C-0.365845 55.1861 -4.65099 56.9759 -4.65099 60.5282V74.5612C-4.65099 76.7704 -6.44184 78.5612 -8.65099 78.5612H-13.8846C-16.0938 78.5612 -17.8846 80.3521 -17.8846 82.5612V222.775C-17.8846 224.984 -19.6755 226.775 -21.8846 226.775H-26.6253C-28.8344 226.775 -30.6253 224.984 -30.6253 222.775V201.688C-30.6253 199.478 -32.4161 197.688 -34.6253 197.688H-43.2888C-45.498 197.688 -47.2888 199.478 -47.2888 201.688V219.84C-47.2888 222.049 -49.0797 223.84 -51.2888 223.84H-55.0505C-57.2596 223.84 -59.0505 222.049 -59.0505 219.84V184.302C-59.0505 182.093 -60.8414 180.302 -63.0505 180.302H-73.0872C-74.1386 180.302 -75.1477 180.716 -75.8962 181.454L-88.7585 194.141C-89.507 194.88 -90.5161 195.294 -91.5675 195.294H-103.076C-105.285 195.294 -107.076 197.084 -107.076 199.294V239.245C-107.076 241.454 -108.867 243.245 -111.076 243.245H-111.901C-114.11 243.245 -115.901 241.454 -115.901 239.245V208.461C-115.901 206.252 -117.692 204.461 -119.901 204.461H-126.6C-128.809 204.461 -130.6 206.252 -130.6 208.461L-130.634 518Z" fill="#1F1F1F"/>
<path d="M1211.43 146.302C1211.41 143.343 1208.12 141.54 1205.41 143.005L1164.56 165.113C1161.15 166.956 1161.98 171.845 1165.8 172.398L1187.93 175.607C1188.92 175.75 1189.8 176.236 1190.42 176.973L1204.42 193.565C1206.83 196.423 1211.71 194.663 1211.69 190.943L1211.43 146.302Z" fill="#5E5E5E"/>
<path d="M1129.27 175.182L1139.11 158.132" stroke="white" stroke-width="3" stroke-linecap="round"/>
<path d="M1182.61 186.781C1149.05 238.461 1039.13 337.523 867.985 320.326" stroke="white" stroke-width="2" stroke-linecap="round" stroke-dasharray="14 14"/>
<path d="M660.284 177.332C657.248 176.577 654.479 179.205 655.275 182.086L667.195 225.262C668.181 228.833 673.359 229.219 674.921 225.839L683.87 206.476C684.283 205.581 685.036 204.867 685.979 204.474L706.378 195.98C709.939 194.497 709.532 189.582 705.77 188.647L660.284 177.332Z" fill="#5E5E5E"/>
<path d="M692.261 211.388C703.788 219.419 722.5 246.796 705.136 292.052C683.432 348.621 688.214 404.492 747.811 424.745" stroke="white" stroke-width="2.5" stroke-linecap="round" stroke-dasharray="14 14"/>
<path d="M862.727 239.322L886.916 239.322C889.125 239.322 890.916 241.113 890.916 243.322L890.916 648.5C890.916 650.709 889.125 652.5 886.916 652.5L862.727 652.5C860.518 652.5 858.727 650.709 858.727 648.5L858.727 243.322C858.727 241.113 860.518 239.322 862.727 239.322Z" fill="white" stroke="#1C1F23" stroke-width="3"/>
<path d="M925.05 147.023C924.864 137.523 926.689 128.084 930.42 119.256C934.151 110.429 939.712 102.39 946.778 95.6096C953.845 88.8294 962.275 83.4438 971.576 79.7673C980.877 76.0908 990.863 74.1973 1000.95 74.1973C1011.04 74.1973 1021.02 76.0908 1030.32 79.7673C1039.63 83.4438 1048.06 88.8294 1055.12 95.6096C1062.19 102.39 1067.75 110.429 1071.48 119.256C1075.21 128.084 1077.04 137.523 1076.85 147.023L1076.85 240.216C1076.85 242.425 1075.06 244.216 1072.85 244.216L929.05 244.216C926.841 244.216 925.05 242.425 925.05 240.216L925.05 147.023Z" fill="#E25F3C" stroke="#1C1F23" stroke-width="3"/>
<path d="M926.802 244.736L926.804 244.744L937.593 287.089C947.785 327.069 990.196 359.58 1032.48 359.58C1053.56 359.58 1070.39 351.501 1080.7 338.583C1091 325.67 1094.91 307.761 1089.83 287.831C1089.83 287.83 1089.83 287.83 1089.83 287.83L1078.57 243.678L1078.57 243.678L1078.57 243.673C1078.44 243.169 1078.13 242.703 1077.68 242.361C1077.23 242.019 1076.65 241.824 1076.05 241.82L929.317 241.82L929.312 241.82C928.909 241.819 928.513 241.905 928.155 242.07C927.798 242.234 927.492 242.47 927.257 242.755C927.021 243.039 926.862 243.365 926.785 243.705C926.708 244.046 926.714 244.398 926.802 244.736Z" fill="#E25F3C" stroke="#1C1F23" stroke-width="3"/>
<path d="M746.473 146.257C746.509 146.257 746.538 146.286 746.538 146.322L746.538 240.225C746.538 242.434 748.329 244.225 750.538 244.225L921.066 244.225C923.275 244.225 925.066 242.434 925.066 240.225L925.066 146.257C925.073 127.155 933.07 108.837 947.3 95.3297C961.53 81.8224 980.829 74.2311 1000.95 74.2246L822.296 74.2246C802.171 74.2311 782.873 81.8224 768.643 95.3297C754.429 108.822 746.433 127.114 746.409 146.193C746.409 146.228 746.438 146.257 746.473 146.257Z" fill="#E25F3C" stroke="#1C1F23" stroke-width="3"/>
<path d="M900.305 185.085L900.305 40.1846C900.308 38.8927 900.014 37.6157 899.445 36.4425C898.875 35.2693 898.043 34.228 897.006 33.3911C895.969 32.5542 894.753 31.9419 893.441 31.5967C892.13 31.2515 890.755 31.1818 889.412 31.3923L852.827 37.1392C851.515 37.3436 850.323 37.985 849.465 38.9482C848.607 39.9114 848.138 41.1334 848.143 42.395L848.143 51.3837C848.143 52.7971 848.735 54.1527 849.788 55.1521C850.841 56.1516 852.269 56.713 853.758 56.713L884.662 56.713C886.871 56.713 888.662 58.5039 888.662 60.713L888.662 185.036C888.662 186.501 889.275 187.907 890.367 188.943C891.458 189.98 892.939 190.562 894.483 190.562C896.018 190.562 897.491 189.986 898.581 188.961C899.672 187.935 900.291 186.542 900.305 185.085Z" fill="white" stroke="#1C1F23" stroke-width="3" stroke-linejoin="round"/>
<path d="M968.29 139.794L968.29 211.791C968.29 211.792 968.29 211.793 968.29 211.795C968.296 213.247 968.907 214.656 970.019 215.711C971.134 216.769 972.661 217.382 974.274 217.394L1119.25 217.394C1120.86 217.382 1122.39 216.769 1123.5 215.711C1124.61 214.656 1125.22 213.246 1125.23 211.793L1125.23 139.791C1125.22 138.338 1124.61 136.929 1123.5 135.873C1122.39 134.815 1120.86 134.202 1119.25 134.19L974.274 134.19C972.661 134.202 971.134 134.815 970.019 135.873C968.907 136.928 968.296 138.338 968.29 139.79C968.29 139.791 968.29 139.792 968.29 139.794Z" fill="white" stroke="#1C1F23" stroke-width="3"/>
<mask id="path-14-inside-1_3_5027" fill="white">
<path d="M-nan -nanL969.753 134.587L1028.07 179.015C1033.48 183.126 1040.2 185.366 1047.13 185.366C1054.06 185.366 1060.78 183.126 1066.18 179.015L1120.56 137.532C1122.57 136.006 1122.54 132.935 1120.04 132.704C1119.78 132.68 1119.51 132.669 1119.25 132.671L974.799 132.671C972.923 132.687 971.122 133.37 969.753 134.587L-nan -nanZ"/>
</mask>
<path d="M1028.07 179.015L1026.26 181.403L1026.25 181.401L1028.07 179.015ZM1047.13 185.366L1047.13 182.366L1047.13 185.366ZM1066.18 179.015L1068 181.4L1068 181.403L1066.18 179.015ZM1119.25 132.671L1119.28 135.671L1119.26 135.671L1119.25 135.671L1119.25 132.671ZM974.799 132.671L974.774 129.671L974.786 129.671L974.799 129.671L974.799 132.671ZM971.571 132.2L1029.89 176.628L1026.25 181.401L967.935 136.973L971.571 132.2ZM1029.89 176.627C1034.76 180.333 1040.84 182.366 1047.13 182.366L1047.13 188.366C1039.56 188.366 1032.2 185.92 1026.26 181.403L1029.89 176.627ZM1047.13 182.366C1053.41 182.366 1059.49 180.333 1064.37 176.627L1068 181.403C1062.06 185.92 1054.7 188.366 1047.13 188.366L1047.13 182.366ZM1064.36 176.63L1118.75 135.147L1122.38 139.917L1068 181.4L1064.36 176.63ZM1119.76 135.691C1119.6 135.677 1119.44 135.67 1119.28 135.671L1119.23 129.671C1119.59 129.668 1119.95 129.684 1120.31 129.717L1119.76 135.691ZM1119.25 135.671L974.799 135.671L974.799 129.671L1119.25 129.671L1119.25 135.671ZM974.823 135.671C973.655 135.681 972.558 136.108 971.746 136.829L967.761 132.344C969.687 130.633 972.192 129.692 974.774 129.671L974.823 135.671ZM1118.75 135.147C1118.86 135.061 1118.93 134.962 1118.97 134.88C1119.01 134.79 1118.99 134.768 1119 134.84C1119 134.921 1119.05 135.157 1119.27 135.395C1119.38 135.51 1119.5 135.59 1119.61 135.64C1119.71 135.688 1119.77 135.692 1119.76 135.691L1120.31 129.717C1121.57 129.832 1122.76 130.341 1123.65 131.287C1124.52 132.213 1124.91 133.355 1124.98 134.424C1125.13 136.499 1124.12 138.593 1122.38 139.917L1118.75 135.147Z" fill="#1C1F23" mask="url(#path-14-inside-1_3_5027)"/>
</g>
</svg>
