<svg width="148" height="148" viewBox="0 0 148 148" fill="none" xmlns="http://www.w3.org/2000/svg">
<rect width="148" height="148" rx="4" fill="#EFBBAF"/>
<path d="M95.6067 90.3561L91.6094 94.3514L79.8127 82.7552L83.9075 78.7599L95.6067 90.3561Z" fill="#E25F3C"/>
<path d="M51.2476 50.2079C42.4731 58.9781 42.4731 73.1079 51.2476 81.7807C60.022 90.4535 74.1585 90.551 82.8354 81.7807C91.5123 73.0105 91.6098 58.8807 82.8354 50.2079C74.061 41.5351 60.022 41.4376 51.2476 50.2079ZM79.3257 78.2726C72.5986 84.9965 61.5819 84.9965 54.8548 78.2726C48.1278 71.5488 48.1278 60.5373 54.8548 53.8134C61.5819 47.0896 72.5986 47.0896 79.3257 53.8134C86.0527 60.5373 86.0527 71.4513 79.3257 78.2726Z" fill="white" stroke="#E25F3C" stroke-width="1.3253"/>
<path d="M101.944 100.685C100.092 102.537 97.1669 102.537 95.412 100.685L83.5178 88.8942C82.7379 88.2121 82.7379 86.9453 83.5178 86.2631L87.4176 82.3652C88.1 81.6831 89.2699 81.6831 90.0499 82.3652L101.944 94.1563C103.796 96.0078 103.796 98.9312 101.944 100.685Z" fill="white" stroke="#E25F3C" stroke-width="1.3253"/>
</svg>
